# xmcd
#
# Track frame offsets: 
#        150
#        10404
#        27135
#        41023
#        58459
#        72608
#        87562
#        107263
#        119543
#        136905
#        158025
#        182667
#        196512
#        223938
#        249184
#        249957
#        270344
#        276668
#        278560
#        298804
#
# Disc length: 4189 seconds
#
# Revision: 0
# Processed by: cddbd v1.5.2PL0 Copyright (c) Steve Scherf et al.
# Submitted via: ExactAudioCopy v0.95b3
#
DISCID=2b105b14
DTITLE=Free  - Live At The BBC - In Session
DYEAR=1900
DGENRE=
TTITLE0=Waiting On You
TTITLE1=Sugar For Mr. Morrision
TTITLE2=I'm A Mover
TTITLE3=Over The Green Hills
TTITLE4=Songs Of Yesterday
TTITLE5=Broad Daylight
TTITLE6=Woman
TTITLE7=I'll Be Creepin'
TTITLE8=Trouble On Double Time
TTITLE9=Mouthful Of Grass
TTITLE10=All Right Now
TTITLE11=Fire And Water
TTITLE12=Be My Friend - Take 1
TTITLE13=Be My Friend - Take 2
TTITLE14=Ride On A Pony - Take 1
TTITLE15=Ride On A Pony - Take 2
TTITLE16=Ride On A Pony - Take 3
TTITLE17=Ride On A Pony - Take 4
TTITLE18=Ride On A Pony - Take 5
TTITLE19=Get Where I Belong
EXTD=
EXTT0=
EXTT1=
EXTT2=
EXTT3=
EXTT4=
EXTT5=
EXTT6=
EXTT7=
EXTT8=
EXTT9=
EXTT10=
EXTT11=
EXTT12=
EXTT13=
EXTT14=
EXTT15=
EXTT16=
EXTT17=
EXTT18=
EXTT19=
PLAYORDER=
